<svg width="68" height="68" viewBox="0 0 68 68" fill="none" xmlns="http://www.w3.org/2000/svg">
<circle cx="34" cy="34" r="33.5278" fill="white" stroke="#FC642D" stroke-width="0.944444"/>
<path fill-rule="evenodd" clip-rule="evenodd" d="M37.7546 17.9447L34 16L30.2455 17.9447L26.0649 18.5783L24.1705 22.3584L21.1608 25.3283L21.85 29.5L21.1608 33.6717L24.1705 36.6416L26.0649 40.4217L30.2455 41.0553L34 43L37.7546 41.0553L41.9351 40.4217L43.8296 36.6416L46.8393 33.6717L46.15 29.5L46.8393 25.3283L43.8296 22.3584L41.9351 18.5783L37.7546 17.9447ZM40.4457 20.6282L37.0499 20.1136L34 18.5339L30.9502 20.1136L27.5543 20.6282L26.0154 23.6989L23.5706 26.1113L24.1305 29.5L23.5706 32.8887L26.0154 35.3011L27.5543 38.3718L30.9502 38.8865L34 40.4661L37.0499 38.8865L40.4457 38.3718L41.9846 35.3011L44.4294 32.8887L43.8695 29.5L44.4294 26.1113L41.9846 23.6989L40.4457 20.6282Z" fill="#FC642D"/>
<path d="M25 42.5361V52.0001L34 49.7501L43 52.0001V42.5361L38.4592 43.2243L34 45.534L29.5407 43.2243L25 42.5361Z" fill="#FC642D"/>
</svg>
