<svg width="68" height="68" viewBox="0 0 68 68" fill="none" xmlns="http://www.w3.org/2000/svg">
<circle cx="34" cy="34" r="33.5278" fill="white" stroke="#FC642D" stroke-width="0.944444"/>
<path fill-rule="evenodd" clip-rule="evenodd" d="M17 24.4375C17 22.6771 18.4271 21.25 20.1875 21.25H39.3125C41.0729 21.25 42.5 22.6771 42.5 24.4375V27.625H44.6662C45.6345 27.625 46.5503 28.0652 47.1552 28.8213L50.3015 32.7542C50.7537 33.3194 51 34.0216 51 34.7454V39.3125C51 41.0729 49.5729 42.5 47.8125 42.5H46.75C46.75 44.8472 44.8472 46.75 42.5 46.75C40.1528 46.75 38.25 44.8472 38.25 42.5H27.625C27.625 44.8472 25.7222 46.75 23.375 46.75C21.0278 46.75 19.125 44.8472 19.125 42.5C19.125 42.4397 19.1263 42.3797 19.1287 42.3199C17.8888 41.8834 17 40.7018 17 39.3125V24.4375ZM19.7497 40.2809C20.497 39.0626 21.8411 38.25 23.375 38.25C24.9481 38.25 26.3216 39.1047 27.0564 40.375H38.8186C39.1918 39.7298 39.7298 39.1918 40.375 38.8186V24.4375C40.375 23.8507 39.8993 23.375 39.3125 23.375H20.1875C19.6007 23.375 19.125 23.8507 19.125 24.4375V39.3125C19.125 39.7432 19.3813 40.114 19.7497 40.2809ZM42.5 38.25C44.0731 38.25 45.4466 39.1047 46.1814 40.375H47.8125C48.3993 40.375 48.875 39.8993 48.875 39.3125V34.7454C48.875 34.5041 48.7929 34.2701 48.6422 34.0817L45.4958 30.1488C45.2942 29.8967 44.9889 29.75 44.6662 29.75H42.5V38.25ZM23.375 40.375C22.2014 40.375 21.25 41.3264 21.25 42.5C21.25 43.6736 22.2014 44.625 23.375 44.625C24.5486 44.625 25.5 43.6736 25.5 42.5C25.5 41.3264 24.5486 40.375 23.375 40.375ZM42.5 40.375C41.3264 40.375 40.375 41.3264 40.375 42.5C40.375 43.6736 41.3264 44.625 42.5 44.625C43.6736 44.625 44.625 43.6736 44.625 42.5C44.625 41.3264 43.6736 40.375 42.5 40.375Z" fill="#FC642D"/>
</svg>
