<svg width="20" height="20" viewBox="0 0 20 20" fill="none" xmlns="http://www.w3.org/2000/svg">
<path fill-rule="evenodd" clip-rule="evenodd" d="M0 10C0 4.47715 4.47715 0 10 0C15.5228 0 20 4.47715 20 10C20 15.5228 15.5228 20 10 20C4.47715 20 0 15.5228 0 10ZM9.375 1.34569C8.53821 1.6016 7.70577 2.37153 7.01593 3.66498C6.79996 4.06993 6.60375 4.51704 6.43124 4.99999H9.375V1.34569ZM5.11193 4.99999H2.81836C3.77036 3.63516 5.10149 2.55442 6.65908 1.91044C6.38578 2.26551 6.13639 2.65788 5.91299 3.07675C5.60407 3.65598 5.33495 4.30173 5.11193 4.99999ZM4.38556 9.37499H1.27197C1.35044 8.26311 1.63666 7.20858 2.09203 6.24999H4.77501C4.55712 7.22712 4.42274 8.27896 4.38556 9.37499ZM6.05858 6.24999H9.375V9.37499H5.63632C5.67689 8.25972 5.82507 7.20621 6.05858 6.24999ZM10.625 6.24999V9.37499H14.3637C14.3231 8.25972 14.1749 7.20621 13.9414 6.24999H10.625ZM5.63632 10.625H9.375V13.75H6.05858C5.82507 12.7938 5.67689 11.7403 5.63632 10.625ZM10.625 10.625V13.75H13.9414C14.1749 12.7938 14.3231 11.7403 14.3637 10.625H10.625ZM6.43124 15H9.375V18.6543C8.53821 18.3984 7.70577 17.6285 7.01593 16.335C6.79996 15.9301 6.60375 15.4829 6.43124 15ZM6.65908 18.0895C6.38578 17.7345 6.13639 17.3421 5.91299 16.9232C5.60407 16.344 5.33495 15.6982 5.11193 15H2.81836C3.77036 16.3648 5.10149 17.4456 6.65908 18.0895ZM4.77501 13.75H2.09203C1.63666 12.7914 1.35044 11.7369 1.27197 10.625H4.38556C4.42274 11.721 4.55712 12.7729 4.77501 13.75ZM13.3409 18.0895C14.8985 17.4456 16.2296 16.3648 17.1816 15H14.8881C14.665 15.6982 14.3959 16.344 14.087 16.9232C13.8636 17.3421 13.6142 17.7345 13.3409 18.0895ZM10.625 15H13.5687C13.3962 15.4829 13.2 15.9301 12.9841 16.335C12.2942 17.6285 11.4618 18.3984 10.625 18.6543V15ZM15.225 13.75H17.908C18.3633 12.7914 18.6495 11.7369 18.728 10.625H15.6144C15.5773 11.721 15.4429 12.7729 15.225 13.75ZM18.728 9.37499H15.6144C15.5773 8.27896 15.4429 7.22712 15.225 6.24999H17.908C18.3633 7.20858 18.6495 8.26311 18.728 9.37499ZM14.087 3.07675C14.3959 3.65598 14.665 4.30173 14.8881 4.99999H17.1816C16.2296 3.63516 14.8985 2.55442 13.3409 1.91044C13.6142 2.26551 13.8636 2.65788 14.087 3.07675ZM13.5687 4.99999H10.625V1.34569C11.4618 1.6016 12.2942 2.37153 12.9841 3.66498C13.2 4.06993 13.3962 4.51704 13.5687 4.99999Z" fill="#484848"/>
</svg>
