<svg width="49" height="32" viewBox="0 0 49 32" fill="none" xmlns="http://www.w3.org/2000/svg">
<path fill-rule="evenodd" clip-rule="evenodd" d="M19.6209 4.86781C17.7196 1.93801 14.4195 0 10.6667 0C4.77563 0 0 4.77563 0 10.6667C0 16.5577 4.77563 21.3333 10.6667 21.3333C12.774 21.3333 14.7386 20.7222 16.393 19.6675C15.5517 22.1565 13.9929 24.811 11.4149 27.4811C10.392 28.5406 10.4216 30.2288 11.4811 31.2517C12.5406 32.2747 14.2288 32.2451 15.2517 31.1856C24.77 21.3273 23.532 10.6146 19.6209 4.86781Z" fill="#FC642D"/>
<path fill-rule="evenodd" clip-rule="evenodd" d="M45.2209 4.86781C43.3196 1.93801 40.0195 0 36.2667 0C30.3756 0 25.6 4.77563 25.6 10.6667C25.6 16.5577 30.3756 21.3333 36.2667 21.3333C38.374 21.3333 40.3386 20.7222 41.993 19.6675C41.1516 22.1565 39.5929 24.811 37.0149 27.4811C35.992 28.5406 36.0216 30.2288 37.0811 31.2517C38.1406 32.2747 39.8288 32.2451 40.8517 31.1856C50.37 21.3273 49.132 10.6146 45.2209 4.86781Z" fill="#FC642D"/>
</svg>
