<svg width="68" height="68" viewBox="0 0 68 68" fill="none" xmlns="http://www.w3.org/2000/svg">
<circle cx="34" cy="34" r="33.5278" fill="white" stroke="#FC642D" stroke-width="0.944444"/>
<path fill-rule="evenodd" clip-rule="evenodd" d="M28.5666 21.2317C26.35 21.8182 24.1052 22.5115 22.7766 22.9347C22.411 23.0511 22.1543 23.3601 22.1061 23.7131C20.9756 31.9936 23.5877 38.0375 26.7045 42.0171C28.2694 44.0152 29.9625 45.493 31.374 46.4646C32.0804 46.9507 32.7048 47.3022 33.1954 47.5277C33.4411 47.6405 33.642 47.7166 33.7946 47.7627C33.9202 47.8007 33.9849 47.8097 34.0002 47.8118C34.0156 47.8097 34.0802 47.8007 34.2059 47.7627C34.3585 47.7166 34.5594 47.6405 34.805 47.5277C35.2957 47.3022 35.9201 46.9507 36.6264 46.4646C38.0379 45.493 39.7311 44.0152 41.2959 42.0171C44.4127 38.0375 47.0248 31.9936 45.8943 23.7131C45.8461 23.3601 45.5894 23.0511 45.2239 22.9347C43.8953 22.5115 41.6505 21.8182 39.4338 21.2317C37.1674 20.6321 35.0838 20.1875 34.0002 20.1875C32.9167 20.1875 30.833 20.6321 28.5666 21.2317ZM28.0231 19.1774C30.2392 18.5911 32.5929 18.0625 34.0002 18.0625C35.4076 18.0625 37.7612 18.5911 39.9773 19.1774C42.2432 19.7769 44.5259 20.4822 45.8688 20.9099C46.9894 21.2668 47.837 22.2333 47.9998 23.4257C49.2176 32.3453 46.3938 38.9543 42.9689 43.3274C41.2629 45.5057 39.4087 47.1292 37.8312 48.215C37.0431 48.7575 36.3126 49.1736 35.6922 49.4586C35.119 49.7219 34.5058 49.9375 34.0002 49.9375C33.4946 49.9375 32.8814 49.7219 32.3082 49.4586C31.6879 49.1736 30.9574 48.7575 30.1692 48.215C28.5917 47.1292 26.7376 45.5057 25.0316 43.3274C21.6066 38.9543 18.7829 32.3453 20.0007 23.4257C20.1635 22.2333 21.0111 21.2668 22.1317 20.9099C23.4745 20.4822 25.7573 19.7769 28.0231 19.1774Z" fill="#FC642D"/>
<path fill-rule="evenodd" clip-rule="evenodd" d="M40.0638 30.0612C40.4787 30.4761 40.4787 31.1489 40.0638 31.5638L33.6888 37.9388C33.4895 38.1381 33.2193 38.25 32.9375 38.25C32.6557 38.25 32.3855 38.1381 32.1862 37.9388L28.9987 34.7513C28.5838 34.3364 28.5838 33.6636 28.9987 33.2487C29.4136 32.8338 30.0864 32.8338 30.5013 33.2487L32.9375 35.6849L38.5612 30.0612C38.9761 29.6463 39.6489 29.6463 40.0638 30.0612Z" fill="#FC642D"/>
</svg>
